# xmcd CD database file
#
# Track frame offsets:
#	150
#	22403
#	45377
#	82214
#	127154
#	154816
#	177122
#	197336
#	211765
#	233141
#
# Disc length: 3477 seconds
#
# Revision: 0
# Processed by: cddbd v1.5.1PL0 Copyright (c) Steve Scherf et al.
# Submitted via: CDex 1.51
#
DISCID=840d930a
DTITLE=Varios - Relajacion 3
DYEAR=2004
DGENRE=New Age
TTITLE0=Oriental Skies YOGA
TTITLE1=Guardian Angel Part 2   YOGA
TTITLE2=Fountain of Life Part1  YOGA
TTITLE3=Guardian Angel Part 1 YOGA
TTITLE4=Sanctuary         CHAKRA
TTITLE5=The Seven Chakras     CHAKRA
TTITLE6=Orietal Skies 1        CHAKRA
TTITLE7=Orietal Skies  2       CHAKRA
TTITLE8=Orietal Skies  3       CHAKRA
TTITLE9=Orietal Skies  4       CHAKRA
EXTD=YEAR: 2004
EXTT0=
EXTT1=
EXTT2=
EXTT3=
EXTT4=
EXTT5=
EXTT6=
EXTT7=
EXTT8=
EXTT9=
PLAYORDER=
